<svg width="126" height="71" viewBox="0 0 126 71" fill="none" xmlns="http://www.w3.org/2000/svg">
<path fill-rule="evenodd" clip-rule="evenodd" d="M45.1887 0.339812C39.1438 1.49949 34.9592 4.76548 32.9468 9.89396C31.9876 12.3375 31.4871 16.4168 31.8873 18.5256C32.6622 22.6071 35.4447 26.4915 38.7022 28.0395L40.592 28.9375L39.4918 30.1966C36.5599 33.5504 35.8846 38.0806 37.7326 41.9959C39.1041 44.9009 40.2594 46.1571 42.6765 47.37C46.299 49.1884 51.3551 49.1474 57.4773 47.2503C58.9874 46.7823 60.2726 46.4492 60.3332 46.5097C60.5802 46.7581 57.6511 50.7119 55.2796 53.3314C50.5593 58.5452 44.3643 62.542 38.3087 64.28C34.5827 65.3494 26.5766 65.4379 23.3323 64.4454C19.4483 63.2574 16.2844 61.4859 13.7395 59.0749C12.407 57.812 11.3165 56.6603 11.3165 56.5152C11.3165 56.37 11.7779 56.1587 12.3418 56.0454C12.9057 55.932 13.8478 55.401 14.4357 54.8647C15.4402 53.9488 15.4823 53.811 15.1347 52.5758C14.7238 51.1138 13.6549 49.9429 12.4554 49.6407C11.825 49.4819 11.6648 49.1975 11.6648 48.2368C11.6648 46.6052 10.3141 44.2761 9.36606 44.2726C8.42534 44.2691 5.86822 46.1242 5.58681 47.0142C5.40674 47.5848 5.14553 47.6677 4.01325 47.5151C3.00322 47.3791 2.3467 47.5242 1.44812 48.0822C-0.038013 49.0047 -0.254993 49.5256 0.235394 50.9942C0.72787 52.4694 1.36767 53.1984 2.6309 53.7242C3.45565 54.0674 3.60855 54.3004 3.44346 54.9619C3.17075 56.053 3.84015 57.9848 4.88223 59.1144L5.7303 60.0334L7.09733 59.3327C7.84928 58.9475 8.78199 58.2265 9.17033 57.7308L9.87631 56.8293L12.4247 59.418C14.3974 61.4215 15.6425 62.3339 17.9339 63.4547C21.982 65.4347 24.3504 66.0095 29.31 66.2155C35.4409 66.4702 39.4768 65.6226 44.7634 62.9702C50.467 60.1089 57.695 53.4213 60.498 48.4118C60.9114 47.6729 61.3554 47.0684 61.4847 47.0684C61.6135 47.0684 61.7351 47.9738 61.7539 49.0799C61.7995 51.7334 62.9419 56.0982 64.3855 59.1375C66.7598 64.1358 70.1929 67.7208 74.6753 69.8838C76.6867 70.8543 77.332 70.9914 79.9289 70.9998C84.0728 71.0134 88.1658 70.3764 89.0397 69.5819C92.6016 66.3439 90.0382 60.8583 85.2966 61.5726C83.6318 61.8235 82.1161 63.1066 81.8068 64.5273C81.6982 65.0261 81.5735 65.5834 81.5299 65.7657C81.4864 65.9476 81.0733 65.3179 80.6118 64.3663C79.1254 61.298 79.7122 57.0445 82.0332 54.065C82.5577 53.3916 84.2957 52.0598 85.895 51.1054C89.3695 49.0316 90.5345 47.8996 91.6341 45.5274C93.6437 41.192 92.1258 37.4006 87.4853 35.1648L85.4635 34.1909L88.5103 33.9359C92.0865 33.6368 100.29 33.9138 101.474 34.3739L102.296 34.6936L101.3 35.3275C98.9881 36.7985 97.7099 39.3257 97.6991 42.4472C97.6768 48.8305 103.937 52.794 109.748 50.0762C111.51 49.252 112.75 47.9496 113.846 45.7741C114.473 44.5273 114.596 41.3109 114.07 39.9197C113.667 38.8573 113.782 38.8286 115.218 39.6346C119.441 42.005 122.638 45.2206 124.779 49.2496L125.831 51.2296L125.977 49.9681C126.084 49.0449 125.823 48.0878 125.001 46.4006C121.807 39.8473 117.228 34.9899 110.594 31.1198C106.493 28.7276 103.26 25.4805 101.709 22.1967C101.037 20.7726 100.351 18.8758 100.186 17.982L99.885 16.357L100.965 17.0186C102.419 17.9092 102.969 17.8557 104.047 16.7208C105.212 15.4951 105.737 14.0968 105.493 12.872C105.328 12.0461 105.45 11.8526 106.344 11.5137C107.352 11.1317 108.837 8.90849 108.837 7.7824C108.837 7.07645 105.469 5.33535 104.474 5.52636C103.79 5.65754 103.607 5.50992 103.426 4.68362C103.185 3.58237 101.521 2.15577 100.077 1.81364C99.3173 1.63347 98.962 1.81364 98.0742 2.82919C97.1986 3.83109 96.9931 4.37508 96.9858 5.71352C96.9775 7.28634 96.9141 7.39199 95.6219 7.98985C94.0338 8.72484 92.6277 11.0795 93.1697 12.0965C93.6653 13.027 96.6062 14.2801 97.7538 14.0496C98.7339 13.8526 98.7363 13.8565 98.7363 15.7308C98.7363 19.375 100.962 24.5028 103.895 27.6169C104.791 28.5681 104.969 28.9026 104.483 28.7234C102.78 28.0945 96.2046 26.7655 93.1759 26.4373C91.3495 26.2397 85.1532 26.1176 79.4064 26.1658C69.3027 26.2509 68.8715 26.2267 66.3457 25.4354C58.4577 22.9653 53.1693 18.5225 51.9127 13.31C51.508 11.6326 51.6494 8.04967 52.1701 6.78049L52.649 5.61382L53.4058 7.09324C54.9679 10.1479 58.4685 10.5355 61.1022 7.94612C61.3809 7.6722 61.6703 6.5552 61.7501 5.44415C61.8817 3.6184 61.8027 3.33399 60.8773 2.29325C60.0779 1.39524 59.3786 1.04646 57.6173 0.668998C54.1933 -0.0649413 48.1342 -0.22551 45.1887 0.339812ZM51.5435 1.95601C52.5762 1.55371 52.9837 1.27 52.5449 1.25916C52.1377 1.24901 51.3541 1.1773 50.8034 1.09929C49.0338 0.84916 44.6513 1.54917 42.035 2.5C36.5045 4.50976 32.9102 9.94608 32.9102 16.3014C32.9102 21.4551 35.9187 25.8489 40.6596 27.618C41.5697 27.9577 42.3139 28.403 42.3139 28.6077C42.3139 28.8123 41.5975 29.7491 40.7219 30.6891C38.4198 33.1614 37.6615 35.0879 37.8656 37.9449C38.1331 41.686 40.017 44.6599 43.1429 46.275C46.6125 48.0679 52.8959 47.724 59.1539 45.399C61.3861 44.5696 61.5832 44.4083 62.2074 42.9044C63.3104 40.2464 64.2939 38.5977 65.9713 36.596C67.0207 35.3436 67.3331 34.7818 66.8862 34.95C65.6237 35.4254 59.9149 35.7868 57.7925 35.5258C55.2347 35.2114 52.5121 34.0576 51.4725 32.8476C50.6345 31.8726 50.1149 29.392 50.4959 28.1861C50.7247 27.4627 50.6617 27.4368 49.1989 27.6572C44.1665 28.4152 41.4216 22.0774 45.157 18.3255L46.5115 16.965L45.3705 15.5388C44.3023 14.2038 44.2295 13.9401 44.2295 11.4101C44.2295 9.01134 44.3483 8.51459 45.2855 6.99214C46.5247 4.97853 49.0951 2.91 51.5435 1.95601ZM8.98156 50.9498C9.47334 51.739 9.00455 53.2779 8.19408 53.5364C7.31118 53.818 6.20153 53.2128 5.91037 52.291C5.40048 50.6783 8.08263 49.5067 8.98156 50.9498ZM5.65821 49.3329C5.60945 49.294 5.22738 49.0834 4.80908 48.8648C4.39044 48.6465 3.76353 48.4761 3.41594 48.4859C2.47174 48.5136 1.21617 49.5148 1.21617 50.24C1.21617 51.2205 2.65772 52.6422 3.8931 52.8801C4.88571 53.0715 4.98288 53.0183 4.81536 52.375C4.71226 51.9797 4.87979 51.1492 5.18767 50.53C5.49521 49.9104 5.70697 49.3717 5.65821 49.3329ZM10.0776 46.4468C10.6864 47.3192 10.7777 48.7266 10.2768 49.5172C10.0031 49.9496 9.82128 49.965 9.24208 49.6047C8.85583 49.3643 8.06731 49.1674 7.4902 49.1674C6.61879 49.1674 6.44046 49.0268 6.44046 48.3404C6.44046 47.3651 8.00601 45.6691 8.90633 45.6691C9.25218 45.6691 9.77948 46.0189 10.0776 46.4468ZM13.9401 52.7069C13.8217 52.2032 13.4006 51.5158 13.0046 51.1789C12.6083 50.842 11.8145 50.5667 11.2402 50.5667C10.3263 50.5667 10.2211 50.6664 10.3963 51.3675C10.5064 51.8075 10.3576 52.6296 10.0661 53.1943C9.58096 54.1335 9.58757 54.2584 10.1445 54.6674C11.6505 55.7735 14.3347 54.3868 13.9401 52.7069ZM6.09217 54.2399C6.33075 54.5285 7.05518 54.7646 7.70195 54.7646C8.62944 54.7646 8.87846 54.9067 8.87846 55.4356C8.87846 56.5953 8.49953 57.1753 7.22445 57.9669L5.98769 58.7345L5.34336 57.9351C4.70878 57.148 4.49667 55.3516 4.91044 54.2686C5.17548 53.5752 5.53561 53.5665 6.09217 54.2399ZM53.5838 19.1752C50.0456 14.7174 49.4141 8.57441 52.0548 4.30196C52.6197 3.38821 52.9618 2.64028 52.8148 2.64028C52.1168 2.64028 48.2703 5.25034 47.1506 6.48349C44.676 9.20935 44.4639 13.2439 46.6923 15.2089C47.3561 15.7945 48.2881 16.3714 48.7635 16.4914C49.948 16.7898 49.8481 17.1127 48.409 17.6353C45.3928 18.7306 43.9488 21.2266 44.8481 23.7895C45.8452 26.6301 48.5232 27.3504 51.523 25.5848C52.3961 25.0705 53.1108 24.7305 53.1108 24.8288C53.1108 24.9271 52.7772 25.6509 52.369 26.437C51.0441 28.99 51.4704 31.6739 53.4027 32.9455C56.6553 35.0865 64.6018 34.844 71.7121 32.3868C74.8265 31.3104 75.1399 31.5378 72.5459 32.992C68.3574 35.3401 64.4493 39.8301 63.2056 43.7234C62.6643 45.4179 62.9443 50.8696 63.7252 53.833C64.847 58.0929 67.3906 62.4958 67.3906 60.1786C67.3906 59.9082 68.1209 58.4787 69.0136 57.0018C71.3258 53.1761 71.5216 50.0402 69.6234 47.2304C68.4525 45.4973 68.9282 44.9628 70.8619 45.8388C73.5065 47.0366 75.7494 46.2851 75.7494 44.2016C75.7494 43.0394 74.7648 40.9664 73.6493 39.7805C73.0732 39.1676 72.9812 38.8643 73.2804 38.5637C73.5796 38.2632 73.8286 38.2702 74.279 38.591C78.6764 41.7241 81.7675 41.948 82.9039 39.2162C83.4678 37.8602 83.2484 36.9196 81.958 35.1669C81.4429 34.4669 81.3032 34.0037 81.5369 33.769C81.7288 33.5763 83.5221 33.1935 85.5223 32.9189C92.8402 31.9135 104.97 32.9084 105.283 34.5397C105.364 34.9609 105.033 35.2302 104.129 35.4811C102.198 36.0167 100.492 37.5234 99.5729 39.5062C98.5806 41.6468 98.5287 43.2567 99.3907 45.1444C100.719 48.0539 103.122 49.6648 106.099 49.6435C109.839 49.6166 112.702 46.954 113.194 43.0454C113.377 41.5929 113.266 41.0073 112.545 39.5933C111.693 37.9225 111.655 36.9224 112.444 36.9245C113.145 36.9266 117.464 39.2501 118.921 40.4094C120.681 41.8094 120.719 41.5268 119.024 39.6262C114.373 34.4095 110.082 31.7036 103.406 29.7743C95.8922 27.6029 89.6091 26.9764 80.4043 27.4805C73.3985 27.8643 69.8202 27.6131 65.6119 26.4419C61.057 25.1741 55.8466 22.0263 53.5838 19.1752ZM86.7204 36.18C90.1908 37.8498 91.6114 39.9568 91.1757 42.7883C90.7104 45.8115 89.0954 47.6999 84.8414 50.1955C80.5864 52.6915 78.7113 55.8585 78.7311 60.5151C78.7454 63.8567 79.4235 65.6142 81.6891 68.1826L83.1878 69.8814L80.0779 69.7568C77.4839 69.6529 76.6362 69.4633 74.9647 68.6126C72.6417 67.4301 69.5179 64.8718 68.8314 63.5897C68.0603 62.1488 68.5308 60.1023 70.2862 57.2627C72.1502 54.2472 72.5668 52.0968 71.8263 49.3126L71.3537 47.5337L72.9579 47.6887C74.3113 47.8191 74.7324 47.6995 75.6526 46.9218C76.9197 45.8507 77.2902 44.5731 76.8127 42.9209C76.4916 41.8094 76.5146 41.7591 77.2432 41.977C80.2538 42.8775 82.5654 42.2793 83.8203 40.2748C84.49 39.205 84.5398 37.2669 83.9352 35.7865C83.5761 34.9063 84.279 35.0056 86.7204 36.18ZM87.5553 68.9512C89.5809 67.8993 90.0037 65.3294 88.4145 63.7328C86.3917 61.7014 82.905 63.0744 82.905 65.9021C82.905 68.474 85.3667 70.0881 87.5553 68.9512ZM59.7551 2.96317C62.0795 5.29792 59.9842 9.04143 56.6996 8.42258C54.1936 7.95032 53.3201 4.82495 55.1737 2.96317C56.5787 1.55196 58.3501 1.55196 59.7551 2.96317ZM101.399 11.1974C102.628 10.7657 102.991 9.06417 102.008 8.34212C101.149 7.71139 100.592 7.7726 99.7812 8.58735C98.9192 9.45318 98.915 9.69911 99.7446 10.728C100.312 11.4318 100.544 11.4979 101.399 11.1974ZM100.936 3.39241C101.97 3.93884 102.208 4.36843 102.214 5.70127C102.219 6.73361 102.123 6.83821 101.169 6.83821C100.592 6.83821 99.8157 7.02887 99.444 7.2622C98.6155 7.78205 98.5099 7.68445 98.2209 6.12911C98.0415 5.16464 98.154 4.68747 98.7374 3.94269C99.5701 2.87956 99.839 2.81239 100.936 3.39241ZM106.542 9.6099C107.685 8.24557 107.672 8.02448 106.416 7.37205C105.281 6.78224 103.759 6.6668 103.463 7.14781C103.358 7.31818 103.443 7.94997 103.652 8.55167C103.861 9.15337 103.943 9.87962 103.833 10.1661C103.685 10.5523 103.892 10.6863 104.637 10.6863C105.33 10.6863 105.919 10.3529 106.542 9.6099ZM103.948 12.4124C104.514 13.4748 104.376 14.4169 103.505 15.4342C102.929 16.1073 102.502 16.3098 101.999 16.1496C100.81 15.7704 99.7812 14.5603 99.7812 13.5406C99.7812 12.6705 99.9066 12.5705 101.036 12.5383C101.727 12.5187 102.463 12.3302 102.673 12.1192C103.221 11.5693 103.538 11.6424 103.948 12.4124ZM98.4859 10.9875C98.2013 10.4152 98.0485 9.64103 98.146 9.26707C98.4497 8.10004 96.7486 8.41489 95.3928 9.77677C94.7415 10.4309 94.2086 11.1054 94.2086 11.2754C94.2086 11.8037 96.1799 12.7853 97.2401 12.7853C98.7283 12.7853 99.1072 12.2385 98.4859 10.9875Z" fill="#A17C48"/>
</svg>
