<svg width="126" height="71" viewBox="0 0 126 71" fill="none" xmlns="http://www.w3.org/2000/svg">
<path fill-rule="evenodd" clip-rule="evenodd" d="M80.8113 0.339812C86.8562 1.49949 91.0408 4.76548 93.0532 9.89396C94.0124 12.3375 94.5129 16.4168 94.1127 18.5256C93.3378 22.6071 90.5553 26.4915 87.2978 28.0395L85.408 28.9375L86.5082 30.1966C89.4401 33.5504 90.1154 38.0806 88.2674 41.9959C86.8959 44.9009 85.7406 46.1571 83.3235 47.37C79.701 49.1884 74.6449 49.1474 68.5227 47.2503C67.0126 46.7823 65.7274 46.4492 65.6668 46.5097C65.4198 46.7581 68.3489 50.7119 70.7204 53.3314C75.4407 58.5452 81.6357 62.542 87.6913 64.28C91.4173 65.3494 99.4234 65.4379 102.668 64.4454C106.552 63.2574 109.716 61.4859 112.261 59.0749C113.593 57.812 114.684 56.6603 114.684 56.5152C114.684 56.37 114.222 56.1587 113.658 56.0454C113.094 55.932 112.152 55.401 111.564 54.8647C110.56 53.9488 110.518 53.811 110.865 52.5758C111.276 51.1138 112.345 49.9429 113.545 49.6407C114.175 49.4819 114.335 49.1975 114.335 48.2368C114.335 46.6052 115.686 44.2761 116.634 44.2726C117.575 44.2691 120.132 46.1242 120.413 47.0142C120.593 47.5848 120.854 47.6677 121.987 47.5151C122.997 47.3791 123.653 47.5242 124.552 48.0822C126.038 49.0047 126.255 49.5256 125.765 50.9942C125.272 52.4694 124.632 53.1984 123.369 53.7242C122.544 54.0674 122.391 54.3004 122.557 54.9619C122.829 56.053 122.16 57.9848 121.118 59.1144L120.27 60.0334L118.903 59.3327C118.151 58.9475 117.218 58.2265 116.83 57.7308L116.124 56.8293L113.575 59.418C111.603 61.4215 110.357 62.3339 108.066 63.4547C104.018 65.4347 101.65 66.0095 96.69 66.2155C90.5591 66.4702 86.5232 65.6226 81.2366 62.9702C75.533 60.1089 68.305 53.4213 65.502 48.4118C65.0886 47.6729 64.6445 47.0684 64.5153 47.0684C64.3865 47.0684 64.2649 47.9738 64.2461 49.0799C64.2005 51.7334 63.0581 56.0982 61.6145 59.1375C59.2402 64.1358 55.8071 67.7208 51.3247 69.8838C49.3133 70.8543 48.668 70.9914 46.0711 70.9998C41.9272 71.0134 37.8342 70.3764 36.9603 69.5819C33.3984 66.3439 35.9618 60.8583 40.7034 61.5726C42.3682 61.8235 43.8839 63.1066 44.1932 64.5273C44.3018 65.0261 44.4265 65.5834 44.4701 65.7657C44.5136 65.9476 44.9267 65.3179 45.3882 64.3663C46.8746 61.298 46.2878 57.0445 43.9668 54.065C43.4423 53.3916 41.7043 52.0598 40.105 51.1054C36.6305 49.0316 35.4655 47.8996 34.3659 45.5274C32.3563 41.192 33.8742 37.4006 38.5147 35.1648L40.5365 34.1909L37.4897 33.9359C33.9135 33.6368 25.7096 33.9138 24.5262 34.3739L23.7042 34.6936L24.7003 35.3275C27.0119 36.7985 28.2901 39.3257 28.3009 42.4472C28.3232 48.8305 22.0631 52.794 16.2519 50.0762C14.4899 49.252 13.2497 47.9496 12.1543 45.7741C11.5271 44.5273 11.4038 41.3109 11.9304 39.9197C12.3327 38.8573 12.2177 38.8286 10.7817 39.6346C6.55876 42.005 3.36184 45.2206 1.22092 49.2496L0.169434 51.2296L0.0228195 49.9681C-0.0844527 49.0449 0.177465 48.0878 0.99942 46.4006C4.19251 39.8473 8.77177 34.9899 15.4063 31.1198C19.5073 28.7276 22.7401 25.4805 24.2907 22.1967C24.9632 20.7726 25.649 18.8758 25.8145 17.982L26.115 16.357L25.035 17.0186C23.5813 17.9092 23.0306 17.8557 21.9527 16.7208C20.7883 15.4951 20.2631 14.0968 20.5069 12.872C20.6717 12.0461 20.5501 11.8526 19.6557 11.5137C18.6481 11.1317 17.1634 8.90849 17.1634 7.7824C17.1634 7.07645 20.531 5.33535 21.5264 5.52636C22.2097 5.65754 22.3932 5.50992 22.574 4.68362C22.8147 3.58237 24.4795 2.15577 25.9231 1.81364C26.6827 1.63347 27.038 1.81364 27.9258 2.82919C28.8014 3.83109 29.0069 4.37508 29.0142 5.71352C29.0225 7.28634 29.0859 7.39199 30.3781 7.98985C31.9662 8.72484 33.3723 11.0795 32.8303 12.0965C32.3347 13.027 29.3938 14.2801 28.2462 14.0496C27.2661 13.8526 27.2637 13.8565 27.2637 15.7308C27.2637 19.375 25.0381 24.5028 22.1045 27.6169C21.2091 28.5681 21.0311 28.9026 21.517 28.7234C23.2201 28.0945 29.7954 26.7655 32.8241 26.4373C34.6505 26.2397 40.8468 26.1176 46.5936 26.1658C56.6974 26.2509 57.1285 26.2267 59.6543 25.4354C67.5423 22.9653 72.8307 18.5225 74.0873 13.31C74.492 11.6326 74.3506 8.04967 73.8299 6.78049L73.351 5.61382L72.5942 7.09324C71.0321 10.1479 67.5315 10.5355 64.8978 7.94612C64.6191 7.6722 64.3297 6.5552 64.2499 5.44415C64.1183 3.6184 64.1973 3.33399 65.1227 2.29325C65.9221 1.39524 66.6214 1.04646 68.3827 0.668998C71.8067 -0.0649413 77.8658 -0.22551 80.8113 0.339812ZM74.4565 1.95601C73.4238 1.55371 73.0163 1.27 73.4551 1.25916C73.8623 1.24901 74.6459 1.1773 75.1966 1.09929C76.9662 0.84916 81.3487 1.54917 83.965 2.5C89.4955 4.50976 93.0898 9.94608 93.0898 16.3014C93.0898 21.4551 90.0813 25.8489 85.3404 27.618C84.4303 27.9577 83.6861 28.403 83.6861 28.6077C83.6861 28.8123 84.4025 29.7491 85.2781 30.6891C87.5802 33.1614 88.3385 35.0879 88.1344 37.9449C87.8669 41.686 85.983 44.6599 82.8571 46.275C79.3875 48.0679 73.1041 47.724 66.8461 45.399C64.6139 44.5696 64.4168 44.4083 63.7926 42.9044C62.6896 40.2464 61.7061 38.5977 60.0287 36.596C58.9793 35.3436 58.6669 34.7818 59.1138 34.95C60.3763 35.4254 66.0851 35.7868 68.2075 35.5258C70.7653 35.2114 73.4879 34.0576 74.5275 32.8476C75.3655 31.8726 75.8851 29.392 75.5041 28.1861C75.2753 27.4627 75.3383 27.4368 76.8011 27.6572C81.8335 28.4152 84.5784 22.0774 80.843 18.3255L79.4885 16.965L80.6295 15.5388C81.6977 14.2038 81.7705 13.9401 81.7705 11.4101C81.7705 9.01134 81.6517 8.51459 80.7145 6.99214C79.4753 4.97853 76.9049 2.91 74.4565 1.95601ZM117.018 50.9498C116.527 51.739 116.995 53.2779 117.806 53.5364C118.689 53.818 119.798 53.2128 120.09 52.291C120.6 50.6783 117.917 49.5067 117.018 50.9498ZM120.342 49.3329C120.391 49.294 120.773 49.0834 121.191 48.8648C121.61 48.6465 122.236 48.4761 122.584 48.4859C123.528 48.5136 124.784 49.5148 124.784 50.24C124.784 51.2205 123.342 52.6422 122.107 52.8801C121.114 53.0715 121.017 53.0183 121.185 52.375C121.288 51.9797 121.12 51.1492 120.812 50.53C120.505 49.9104 120.293 49.3717 120.342 49.3329ZM115.922 46.4468C115.314 47.3192 115.222 48.7266 115.723 49.5172C115.997 49.9496 116.179 49.965 116.758 49.6047C117.144 49.3643 117.933 49.1674 118.51 49.1674C119.381 49.1674 119.56 49.0268 119.56 48.3404C119.56 47.3651 117.994 45.6691 117.094 45.6691C116.748 45.6691 116.221 46.0189 115.922 46.4468ZM112.06 52.7069C112.178 52.2032 112.599 51.5158 112.995 51.1789C113.392 50.842 114.185 50.5667 114.76 50.5667C115.674 50.5667 115.779 50.6664 115.604 51.3675C115.494 51.8075 115.642 52.6296 115.934 53.1943C116.419 54.1335 116.412 54.2584 115.856 54.6674C114.35 55.7735 111.665 54.3868 112.06 52.7069ZM119.908 54.2399C119.669 54.5285 118.945 54.7646 118.298 54.7646C117.371 54.7646 117.122 54.9067 117.122 55.4356C117.122 56.5953 117.5 57.1753 118.776 57.9669L120.012 58.7345L120.657 57.9351C121.291 57.148 121.503 55.3516 121.09 54.2686C120.825 53.5752 120.464 53.5665 119.908 54.2399ZM72.4162 19.1752C75.9544 14.7174 76.5859 8.57441 73.9452 4.30196C73.3803 3.38821 73.0382 2.64028 73.1852 2.64028C73.8832 2.64028 77.7297 5.25034 78.8494 6.48349C81.324 9.20935 81.5361 13.2439 79.3077 15.2089C78.6439 15.7945 77.7119 16.3714 77.2365 16.4914C76.052 16.7898 76.1519 17.1127 77.591 17.6353C80.6072 18.7306 82.0512 21.2266 81.1519 23.7895C80.1548 26.6301 77.4768 27.3504 74.477 25.5848C73.6039 25.0705 72.8892 24.7305 72.8892 24.8288C72.8892 24.9271 73.2228 25.6509 73.631 26.437C74.9559 28.99 74.5296 31.6739 72.5973 32.9455C69.3447 35.0865 61.3982 34.844 54.2879 32.3868C51.1735 31.3104 50.8601 31.5378 53.4541 32.992C57.6426 35.3401 61.5507 39.8301 62.7944 43.7234C63.3357 45.4179 63.0557 50.8696 62.2748 53.833C61.153 58.0929 58.6094 62.4958 58.6094 60.1786C58.6094 59.9082 57.8791 58.4787 56.9864 57.0018C54.6742 53.1761 54.4784 50.0402 56.3766 47.2304C57.5475 45.4973 57.0718 44.9628 55.1381 45.8388C52.4935 47.0366 50.2506 46.2851 50.2506 44.2016C50.2506 43.0394 51.2352 40.9664 52.3507 39.7805C52.9268 39.1676 53.0188 38.8642 52.7196 38.5637C52.4204 38.2632 52.1714 38.2702 51.721 38.591C47.3236 41.7241 44.2325 41.948 43.0961 39.2162C42.5322 37.8602 42.7516 36.9196 44.042 35.1669C44.5571 34.4669 44.6968 34.0037 44.4631 33.769C44.2712 33.5763 42.4779 33.1935 40.4777 32.9189C33.1598 31.9135 21.0297 32.9084 20.7169 34.5397C20.6361 34.9609 20.9667 35.2302 21.8712 35.4811C23.8024 36.0167 25.508 37.5234 26.4271 39.5062C27.4194 41.6468 27.4713 43.2567 26.6093 45.1444C25.2805 48.0539 22.8784 49.6648 19.9013 49.6435C16.1607 49.6166 13.2977 46.954 12.8063 43.0454C12.6235 41.5929 12.7335 41.0073 13.4548 39.5933C14.3074 37.9225 14.3454 36.9224 13.5562 36.9245C12.8551 36.9266 8.53563 39.2501 7.07875 40.4094C5.31851 41.8095 5.28124 41.5268 6.97601 39.6262C11.6274 34.4095 15.9176 31.7036 22.5935 29.7743C30.1078 27.6029 36.3909 26.9764 45.5957 27.4805C52.6015 27.8643 56.1798 27.6131 60.3881 26.4419C64.943 25.1741 70.1534 22.0263 72.4162 19.1752ZM39.2796 36.18C35.8092 37.8498 34.3886 39.9568 34.8243 42.7883C35.2896 45.8115 36.9046 47.6999 41.1586 50.1955C45.4136 52.6915 47.2887 55.8585 47.2689 60.5151C47.2546 63.8567 46.5765 65.6142 44.3109 68.1826L42.8122 69.8814L45.9221 69.7568C48.5161 69.6529 49.3638 69.4633 51.0353 68.6126C53.3583 67.4301 56.4821 64.8719 57.1686 63.5897C57.9397 62.1488 57.4692 60.1023 55.7138 57.2627C53.8498 54.2472 53.4332 52.0968 54.1737 49.3126L54.6463 47.5337L53.0421 47.6887C51.6887 47.8191 51.2676 47.6995 50.3474 46.9218C49.0803 45.8507 48.7098 44.5731 49.1873 42.9209C49.5084 41.8094 49.4854 41.7591 48.7568 41.977C45.7462 42.8775 43.4346 42.2793 42.1797 40.2748C41.51 39.205 41.4602 37.2669 42.0648 35.7865C42.4239 34.9063 41.721 35.0057 39.2796 36.18ZM38.4447 68.9512C36.4191 67.8993 35.9963 65.3294 37.5855 63.7328C39.6083 61.7014 43.095 63.0744 43.095 65.9021C43.095 68.474 40.6333 70.0881 38.4447 68.9512ZM66.2449 2.96317C63.9205 5.29792 66.0158 9.04143 69.3004 8.42258C71.8064 7.95032 72.6799 4.82495 70.8263 2.96317C69.4213 1.55196 67.6499 1.55196 66.2449 2.96317ZM24.601 11.1974C23.3716 10.7657 23.0087 9.06417 23.9915 8.34212C24.8508 7.71139 25.4077 7.7726 26.2188 8.58735C27.0808 9.45318 27.085 9.69911 26.2554 10.728C25.6877 11.4318 25.4557 11.4979 24.601 11.1974ZM25.0639 3.39241C24.0302 3.93884 23.7923 4.36843 23.786 5.70127C23.7812 6.73361 23.8773 6.83821 24.8306 6.83821C25.4077 6.83821 26.1843 7.02887 26.556 7.2622C27.3845 7.78205 27.4901 7.68445 27.7791 6.12911C27.9585 5.16464 27.846 4.68747 27.2626 3.94269C26.4299 2.87956 26.161 2.81239 25.0639 3.39241ZM19.4582 9.6099C18.3152 8.24557 18.3277 8.02448 19.584 7.37205C20.7194 6.78224 22.241 6.6668 22.5371 7.14781C22.6419 7.31818 22.5566 7.94997 22.348 8.55167C22.139 9.15337 22.0575 9.87962 22.1669 10.1661C22.3145 10.5523 22.1077 10.6863 21.363 10.6863C20.6703 10.6863 20.0806 10.3529 19.4582 9.6099ZM22.0516 12.4124C21.4856 13.4748 21.6239 14.4169 22.4953 15.4342C23.0714 16.1073 23.498 16.3098 24.0009 16.1496C25.19 15.7704 26.2188 14.5603 26.2188 13.5406C26.2188 12.6705 26.0934 12.5705 24.9636 12.5383C24.2733 12.5187 23.5367 12.3302 23.3267 12.1192C22.7792 11.5693 22.4619 11.6424 22.0516 12.4124ZM27.5141 10.9875C27.7986 10.4152 27.9515 9.64103 27.854 9.26707C27.5503 8.10004 29.2514 8.41489 30.6072 9.77677C31.2585 10.4309 31.7914 11.1054 31.7914 11.2754C31.7914 11.8037 29.8201 12.7853 28.7599 12.7853C27.2717 12.7853 26.8928 12.2385 27.5141 10.9875Z" fill="#A17C48"/>
</svg>
